<svg class="aquarius" viewbox="-35 -70 100 100">
  <circle cx="40" cy="-30" r="1.5"></circle>
  <circle cx="25" cy="-32" r="1.5"></circle>
  <circle cx="15" cy="-39" r="1.5"></circle>
  <circle cx="9.5" cy="-36" r="1.5"></circle>
  <circle cx="7" cy="-40" r="1.5"></circle>
  <circle cx="2" cy="-38" r="1.5"></circle>
  <circle cx="-5" cy="-24" r="1.5"></circle>
  <circle cx="-1" cy="-17" r="1.5"></circle>
  <circle cx="-4" cy="-12" r="1.5"></circle>
  <circle cx="-9" cy="-3" r="1.5"></circle>

  <circle cx="12" cy="-28" r="1.5"></circle>
  <circle cx="20" cy="-18" r="1.5"></circle>

  <polyline points="40,-30 25,-32 15,-39 9.5,-36 7,-40 2,-38 -5,-24 -1,-17 -4,-12 -9,-3" stroke="#000000" stroke-width="0.7px" fill="none"></polyline>
  <polyline points="15,-39 12,-28 20,-18" stroke="#000000" stroke-width="0.7px" fill="none"></polyline>
</svg>