<svg class="scorpio" viewbox="-55 -56 100 100">
  <circle cx="19" cy="-26" r="1.5"></circle>
  <circle cx="18" cy="-30" r="1.5"></circle>
  <circle cx="12" cy="-32" r="1.5"></circle>
  <circle cx="10" cy="-24" r="1.5"></circle>
  <circle cx="6" cy="-23" r="1.5"></circle>
  <circle cx="2" cy="-21" r="1.5"></circle>
  <circle cx="-6" cy="-6" r="1.5"></circle>
  <circle cx="-6.5" cy="0" r="1.5"></circle>
  <circle cx="-7" cy="6" r="1.5"></circle>
  <circle cx="-14" cy="9" r="1.5"></circle>
  <circle cx="-21" cy="11" r="1.5"></circle>
  <circle cx="-27" cy="6" r="1.5"></circle>
  <circle cx="-22" cy="2" r="1.5"></circle>
  <circle cx="-16" cy="-2" r="1.5"></circle>
  <circle cx="-19" cy="-6" r="1.5"></circle>
  <circle cx="-28" cy="-4" r="1.5"></circle>
  <circle cx="17.5" cy="-13" r="1.5"></circle>
  <circle cx="19" cy="-19" r="1.5"></circle> 
  <polyline points="19,-26 18,-30 12,-32 10,-24 6,-23 2,-21 -6,-6 -6.5,0 -7,6 -14,9 -21,11 -27,6 -22,2 -16,-2 -19,-6 -28,-4" stroke="#000000" stroke-width="0.7px" fill="none"></polyline>
  <polyline points="10,-24 17.5,-13 19,-19" stroke="#000000" stroke-width="0.7px" fill="none"></polyline>
</svg>