<svg class="virgo" viewbox="-45 -38 100 100">
  <circle cx="15" cy="-5" r="1.5"></circle>
  <circle cx="5" cy="-3" r="1.5"></circle>
  <circle cx="5" cy="12" r="1.5"></circle>
  <circle cx="16" cy="10" r="1.5"></circle>
  <circle cx="20" cy="18" r="1.5"></circle>
  <circle cx="-7" cy="-6" r="1.5"></circle>
  <circle cx="-5" cy="17.5" r="1.5"></circle>
  <circle cx="-15" cy="32" r="1.5"></circle>
  <circle cx="17" cy="-15" r="1.5"></circle>
  <circle cx="16" cy="-25" r="1.5"></circle>
  <circle cx="10" cy="30" r="1.5"></circle>
  <circle cx="5" cy="27" r="1.5"></circle>
  <circle cx="0" cy="35" r="1.5"></circle>
  <polyline points="15,-5 5,-3 5,12 20,18 16,10 15,-5" stroke="#000000" stroke-width="0.7px" fill="none"></polyline>
  <polyline points="5,-3 -7,-6" stroke="#000000" stroke-width="0.7px" fill="none"></polyline>
  <polyline points="5,12 -5,17.5 -15,32" stroke="#000000" stroke-width="0.7px" fill="none"></polyline>
  <polyline points="20,18 10,30 5,27 0,35" stroke="#000000" stroke-width="0.7px" fill="none"></polyline>
  <polyline points="15,-5 17,-15 16,-25" stroke="#000000" stroke-width="0.7px" fill="none"></polyline>
</svg>