<svg class="pisces" viewbox="-33 -70 100 100">
  <circle cx="6" cy="-35" r="1.5"></circle>
  <circle cx="3" cy="-47" r="1.5"></circle>
  <circle cx="0" cy="-40" r="1.5"></circle>
  <circle cx="-1" cy="-21" r="1.5"></circle>
  <circle cx="-9" cy="-9" r="1.5"></circle>
  <circle cx="-13" cy="0" r="1.5"></circle>
  <circle cx="-2" cy="-6" r="1.5"></circle>
  <circle cx="3" cy="-6.5" r="1.5"></circle>
  <circle cx="10" cy="-16" r="1.5"></circle>
  <circle cx="14" cy="-17" r="1.5"></circle>
  <circle cx="30" cy="-22" r="1.5"></circle>

  <circle cx="36" cy="-23" r="1.5"></circle>
  <circle cx="40" cy="-29" r="1.5"></circle>
  <circle cx="47" cy="-26" r="1.5"></circle>
  <circle cx="45.5" cy="-19" r="1.5"></circle>
  <circle cx="39" cy="-17" r="1.5"></circle>

  <polyline points="6,-35 3,-47 0,-40 6,-35 -1,-21 -9,-9 -13,0 -2,-6 3,-6.5 10,-16 14,-17 30,-22 36,-23" stroke="#000000" stroke-width="0.7px" fill="none"></polyline>
  <polyline points="36,-23 40,-29 47,-26 45.5,-19 39,-17 36,-23" stroke="#000000" stroke-width="0.7px" fill="none"></polyline>
</svg>