<svg class="sagittarius" viewbox="-45 -62 100 100">
  <circle cx="22" cy="-37" r="1.5"></circle>
  <circle cx="18" cy="-29" r="1.5"></circle>
  <circle cx="22" cy="-21" r="1.5"></circle>
  <circle cx="31" cy="-20" r="1.5"></circle>
  <circle cx="18" cy="-12" r="1.5"></circle>
  <circle cx="25" cy="-6" r="1.5"></circle>
  
  <circle cx="11" cy="-27" r="1.5"></circle>
  <circle cx="5" cy="-29" r="1.5"></circle>
  <circle cx="0" cy="-25" r="1.5"></circle>
  <circle cx="4" cy="-20" r="1.5"></circle>

  <circle cx="-9" cy="-43" r="1.5"></circle>
  <circle cx="-4" cy="-37" r="1.5"></circle>

  <circle cx="-10" cy="-34" r="1.5"></circle>
  <circle cx="-19" cy="-30" r="1.5"></circle>
  <circle cx="-19" cy="-12" r="1.5"></circle>
  <circle cx="-15" cy="-10" r="1.5"></circle>
  <circle cx="-13" cy="4" r="1.5"></circle>
  <circle cx="-3" cy="1" r="1.5"></circle>
  <circle cx="-2" cy="8" r="1.5"></circle>
  <circle cx="-3" cy="12" r="1.5"></circle>

  <polyline points="22,-37 18,-29 22,-21 31,-20" stroke="#000000" stroke-width="0.7px" fill="none"></polyline>
  <polyline points="22,-21 18,-12 25,-6" stroke="#000000" stroke-width="0.7px" fill="none"></polyline>
  <polyline points="18,-29 11,-27 5,-29 0,-25 4,-20 11,-27" stroke="#000000" stroke-width="0.7px" fill="none"></polyline>
  <polyline points="-9,-43 -4,-37 0,-25 -10,-34 -19,-30 -19,-12 -15,-10 -13,4 -3,1" stroke="#000000" stroke-width="0.7px" fill="none"></polyline>
  <polyline points="-13,4 -2,8 -3,12" stroke="#000000" stroke-width="0.7px" fill="none"></polyline>
</svg>