<svg width="80" height="80" viewbox="0 0 544 544" fill="none" xmlns="http://www.w3.org/2000/svg">
  <circle cx="272" cy="272" r="129" fill="#FFD338"></circle>
  <line x1="262" y1="100" x2="262" y2="10" stroke="#FFD338" stroke-width="20" stroke-linecap="round"></line>
  <line x1="262" y1="534" x2="262" y2="444" stroke="#FFD338" stroke-width="20" stroke-linecap="round"></line>
  <line x1="100" y1="282" x2="10" y2="282" stroke="#FFD338" stroke-width="20" stroke-linecap="round"></line>
  <line x1="534" y1="282" x2="444" y2="282" stroke="#FFD338" stroke-width="20" stroke-linecap="round"></line>
  <line x1="121.634" y1="187.892" x2="45.7697" y2="139.472" stroke="#FFD338" stroke-width="20" stroke-linecap="round"></line>
  <line x1="487.47" y1="421.387" x2="411.606" y2="372.967" stroke="#FFD338" stroke-width="20" stroke-linecap="round"></line>
  <line x1="131.537" y1="371.77" x2="55.2614" y2="419.541" stroke="#FFD338" stroke-width="20" stroke-linecap="round"></line>
  <line x1="499.354" y1="141.409" x2="423.079" y2="189.18" stroke="#FFD338" stroke-width="20" stroke-linecap="round"></line>
  <line x1="10" y1="-10" x2="100" y2="-10" transform="matrix(-0.456025 0.889967 0.889967 0.456025 198.124 416.175)" stroke="#FFD338" stroke-width="20" stroke-linecap="round"></line>
  <line x1="10" y1="-10" x2="100" y2="-10" transform="matrix(-0.456025 0.889967 0.889967 0.456025 396.039 29.929)" stroke="#FFD338" stroke-width="20" stroke-linecap="round"></line>
  <line x1="10" y1="-10" x2="100" y2="-10" transform="matrix(0.459023 0.888424 0.888424 -0.459023 346.362 415.925)" stroke="#FFD338" stroke-width="20" stroke-linecap="round"></line>
  <line x1="10" y1="-10" x2="100" y2="-10" transform="matrix(0.459023 0.888424 0.888424 -0.459023 147.146 30.3488)" stroke="#FFD338" stroke-width="20" stroke-linecap="round"></line>
</svg>