<svg class="taurus" viewbox="-54 -45 100 100">
  <circle cx="-25" cy="-5" r="1.5"></circle>
  <circle cx="-15" cy="-4" r="1.5"></circle>
  <circle cx="-5" cy="-2" r="1.5"></circle>
  <circle cx="-2" cy="2" r="1.5"></circle>
  <circle cx="5" cy="4" r="1.5"></circle>
  <circle cx="14" cy="-6" r="1.5"></circle>
  <circle cx="17" cy="-2" r="1.5"></circle>
  <circle cx="-7" cy="6" r="1.5"></circle>
  <circle cx="-13" cy="7" r="1.5"></circle>
  <circle cx="-24" cy="7" r="1.5"></circle>
  <circle cx="3.5" cy="14" r="1.5"></circle>
  <circle cx="9" cy="16" r="1.5"></circle>
  <polyline points="-25,-5 -15,-4 -5,-2 -2,2 5,4 14,-6 17,-2" stroke="#000000" stroke-width="0.7px" fill="none"></polyline>
  <polyline points="-2,2 -7,6 -13,7 -24,7" stroke="#000000" stroke-width="0.7px" fill="none"></polyline>
  <polyline points="5,4 3.5,14 9,16" stroke="#000000" stroke-width="0.7px" fill="none"></polyline>
</svg>